<?xml version="1.0" encoding="UTF-8" standalone="no"?>
<!DOCTYPE svg PUBLIC "-//W3C//DTD SVG 1.1//EN" "http://www.w3.org/Graphics/SVG/1.1/DTD/svg11.dtd">
<svg width="100%" height="100%" viewBox="0 0 1800 1800" version="1.1" xmlns="http://www.w3.org/2000/svg" xmlns:xlink="http://www.w3.org/1999/xlink" xml:space="preserve" xmlns:serif="http://www.serif.com/" style="fill-rule:evenodd;clip-rule:evenodd;stroke-linejoin:round;stroke-miterlimit:2;">
    <g id="Gemini_Generated_Image_w4hbedw4hbedw4hb.png" transform="matrix(6.541016,0,0,6.541016,-2448.353252,-923.502323)">
        <path d="M573.491,280.526C574.37,279.959 574.536,280.227 577.211,277.255C578.445,275.884 579.589,274.512 583.799,270.856C598.97,257.682 617.897,263.695 625.084,272.817C633.274,283.211 632.344,286.059 632.376,325.499C632.393,346.212 634.378,367.716 620.079,386.146C599.032,413.275 570.983,411.231 566.502,411.226C519.532,411.173 518.452,412.167 507.735,407.026C495.771,401.287 487.061,386.874 487.393,373.5C487.968,350.304 504.148,343.039 506.946,336.39C507.932,337.018 509.133,337.784 517.454,346.544C521.722,351.037 521.173,351.435 521.425,351.759C521.679,352.087 522.282,351.993 522.536,352.321C521.805,352.777 519.641,354.127 514.534,359.531C513.447,360.682 505.703,368.877 509.225,378.598C514.184,392.284 526.163,390.31 542.5,390.289C570.979,390.251 583.806,392.248 597.924,378.955C613.167,364.605 611.339,349.475 611.311,324.501C611.273,289.823 611.764,289.122 608.193,285.846C600.607,278.884 590.638,292.893 588.559,295.507C586.37,293.948 586.356,293.99 586.195,293.823C575.787,283.051 575.562,283.284 574.764,282.257C574.543,281.973 574.796,281.483 574.583,281.193C574.331,280.85 573.744,280.87 573.491,280.526Z" style="fill:rgb(223,174,97);"/>
        <path d="M502.098,206.167C508.483,199.058 520.841,191.626 513.023,176.774C507.814,166.879 494.708,168.438 481.5,168.403C451.742,168.324 435.15,166.06 420.75,185.662C411.274,198.562 412.607,208.893 412.623,244.499C412.634,267.851 411.682,272.632 418.468,274.606C424.99,276.503 431.71,268.115 435.454,263.473L436.053,263.068C436.482,263.508 436.43,263.536 441.337,268.641C442.041,269.374 449.603,277.244 449.945,277.988C450.047,278.208 449.473,278.392 449.574,278.612C446.843,281.44 434.274,296.623 419.503,295.434C413.898,294.984 397.623,293.618 392.3,272.55C391.143,267.97 391.164,267.909 391.585,213.5C391.914,170.957 421.466,149.079 450.5,147.507C453.785,147.329 497.341,147.292 500.5,147.5C503.394,147.691 521.803,148.905 531.298,166.616C547.866,197.522 520.152,217.533 516.65,221.613C515.463,220.773 515.166,221.169 506.439,212.556C503.612,209.765 503.093,210.021 502.098,206.167Z" style="fill:rgb(116,153,169);"/>
        <path d="M611.195,245.5C611.253,210.02 612.078,199.9 606.051,189.831C590.435,163.739 566.731,168.824 543.501,168.444C537.71,168.35 538.6,166.397 535.287,161.64C527.274,150.136 522.608,149.457 522.436,148.526C522.138,146.916 524.208,147.116 524.399,147.135C540.021,148.644 574.011,144.454 590.422,150.71C632.025,166.569 632.25,204.849 632.332,214.504C632.37,218.907 632.711,258.836 632.626,269.544C632.59,274.013 630.778,269.48 627.4,266.622C619.808,260.2 615.014,259.138 612.68,258.157C610.752,257.346 611.212,253.348 611.195,245.5Z" style="fill:rgb(240,203,126);"/>
        <path d="M391.911,354.462C391.804,352.068 391.535,346.042 391.587,324.5C391.676,288.173 391.219,288.064 391.675,287.682C393.593,286.077 395.005,295.607 410.591,300.215C413.06,300.944 412.586,301.916 412.605,326.5C412.618,343.415 410.409,362.599 423.612,376.406C439.855,393.391 453.875,389.962 482.502,390.208C485.872,390.237 484.99,391.755 488.138,396.744C496.607,410.164 502.953,409.432 500.424,411.342C499.831,411.79 499.727,411.216 455.501,411.223C425.339,411.228 396.818,392.506 391.911,354.462Z" style="fill:rgb(88,122,141);"/>
        <path d="M502.098,206.167C503.093,210.021 503.612,209.765 506.439,212.556C515.166,221.169 515.463,220.773 516.65,221.613C518.834,225.223 518.854,225.167 521.867,228.139C530.413,236.571 529.672,237.632 533.588,238.839C532.785,239.843 527.693,246.212 522.592,250.555C516.308,245.17 506.635,234.607 502.552,230.449C484.452,212.011 482.207,211.305 477.583,210.128C450.196,203.153 431.915,233.799 449.939,255.133C450.98,256.365 482.304,288.591 484.656,290.782C479.133,297.91 474.329,302.478 473.346,303.412C473.328,301.483 473.343,301.428 471.919,300.058C462.572,291.071 454.493,280.531 449.574,278.612C449.473,278.392 450.047,278.208 449.945,277.988C449.603,277.244 442.041,269.374 441.337,268.641C436.43,263.536 436.482,263.508 436.053,263.068L435.361,262.506C433.399,258.983 423.809,245.248 428.269,225.45C435.141,194.946 475.018,181.817 499.17,204.829C501.178,206.741 501.498,206.039 502.098,206.167Z" style="fill:rgb(159,189,159);"/>
        <path d="M549.702,256.348C550.259,257.018 550.985,257.745 551.102,257.862C571.834,278.638 571.641,278.773 573.491,280.526C573.744,280.87 574.331,280.85 574.583,281.193C574.796,281.483 574.543,281.973 574.764,282.257C575.562,283.284 575.787,283.051 586.195,293.823C586.356,293.99 586.37,293.948 588.559,295.507C589.204,298.376 589.73,298.112 591.137,300.704C592.726,303.631 602.495,321.622 592.169,342.316C585.905,354.872 571.071,365.599 553.498,365.624C536.415,365.647 523.368,352.816 522.536,352.321C522.282,351.993 521.679,352.087 521.425,351.759C521.173,351.435 521.722,351.037 517.454,346.544C509.133,337.784 507.932,337.018 506.946,336.39C499.675,327.497 499.005,328.188 491.078,319.867C491.389,318.733 490.786,318.264 498.49,310.491C499.705,309.265 499.706,309.328 501.068,308.247C513.943,318.474 533.477,345.741 546.487,348.582C548.434,349.007 555.176,351.559 565.344,347.165C572.152,344.223 580.147,335.434 580.799,325.526C581.895,308.882 575.19,304.867 560.902,290.058C540.863,269.289 540.638,269.472 539.237,267.078C548.995,255.81 549.579,256.453 549.702,256.348Z" style="fill:rgb(132,165,141);"/>
        <path d="M539.237,267.078C540.638,269.472 540.863,269.289 560.902,290.058C575.19,304.867 581.895,308.882 580.799,325.526C580.147,335.434 572.152,344.223 565.344,347.165C555.176,351.559 548.434,349.007 546.487,348.582C533.477,345.741 513.943,318.474 501.068,308.247C503.194,305.873 508.313,300.109 511.437,297.352C511.792,297.038 512.367,296.674 513.061,296.717C520.869,305.112 543.359,327.968 544.703,329.283C555.968,340.307 573.981,326.596 559.545,311.457C556.941,308.727 529.004,280.202 528.818,280.02C528.875,279.815 528.526,279.631 528.584,279.426C528.937,278.17 529.218,277.171 539.237,267.078Z" style="fill:rgb(87,120,138);"/>
        <path d="M522.592,250.555C521.022,252.399 521.027,252.321 515.885,257.844C512.953,260.992 513.024,261.396 510.549,261.453C500.17,250.275 481.431,231.691 478.861,229.141C467.398,217.774 450.318,232.837 464.116,246.895C466.573,249.399 487.98,271.21 494.664,278.363C494.27,282.217 493.282,281.76 490.632,284.613C487.69,287.783 487.843,287.878 484.656,290.782C482.304,288.591 450.98,256.365 449.939,255.133C431.915,233.799 450.196,203.153 477.583,210.128C482.207,211.305 484.452,212.011 502.552,230.449C506.635,234.607 516.308,245.17 522.592,250.555Z" style="fill:rgb(117,152,167);"/>
        <path d="M560.737,226.186C556.468,233.061 479.751,312.002 475.462,319.559L473.781,318.088C470.324,314.758 470.569,314.561 467.466,312.447C468.677,308.433 469.62,309.018 473.346,303.412C474.329,302.478 479.133,297.91 484.656,290.782C487.843,287.878 487.69,287.783 490.632,284.613C493.282,281.76 494.27,282.217 494.664,278.363C495.198,278.366 495.539,279.124 496.073,279.126C496.303,279.127 495.96,278.802 497.843,276.861C498.927,275.744 510.646,263.668 510.816,262.363C510.856,262.049 510.508,261.766 510.549,261.453C513.024,261.396 512.953,260.992 515.885,257.844C521.027,252.321 521.022,252.399 522.592,250.555C527.693,246.212 532.785,239.843 533.588,238.839C534.917,238.063 534.929,238.095 535.023,238.001C543.01,229.952 542.763,229.77 550.86,221.878C554.124,218.696 556.12,221.252 560.737,226.186Z" style="fill:rgb(239,203,126);"/>
        <path d="M560.737,226.186C562.108,227.684 566.436,231.603 567.115,232.688C569.353,236.269 553.884,248.098 549.702,256.348C549.579,256.453 548.995,255.81 539.237,267.078C529.218,277.171 528.937,278.17 528.584,279.426C528.526,279.631 528.875,279.815 528.818,280.02C526.963,280.712 526.548,280.336 521.025,287.1C518.136,290.64 514.667,292.502 513.117,296.734C512.557,296.94 511.997,297.146 511.437,297.352C508.313,300.109 503.194,305.873 501.068,308.247C499.706,309.328 499.705,309.265 498.49,310.491C490.786,318.264 491.389,318.733 491.078,319.867C490.848,319.9 490.647,319.609 490.417,319.642C488.833,319.873 486.933,322.983 482.257,326.259C478.914,322.813 478.918,322.902 475.462,319.559C479.751,312.002 556.468,233.061 560.737,226.186Z" style="fill:rgb(222,173,98);"/>
        <path d="M593.365,190.732C599.836,197.504 595.45,200.502 583.073,216.202C573.317,228.577 572.828,228.68 571.588,228.202C571.135,228.028 558.481,216.614 558.916,214.593C559.222,213.174 559.439,213.247 571.701,201.714C585.562,188.678 586.691,187.02 593.365,190.732Z" style="fill:rgb(104,139,157);"/>
        <path d="M461.683,334.205C472.582,343.851 464.214,362.183 443.55,364.848C442.504,364.984 431.087,366.456 430.386,365.67C429.572,364.759 431.045,363.196 432.058,362.124C432.687,362.238 432.871,363.273 433.5,363.387C433.767,363.435 436.354,361.762 436.594,361.607C450.364,352.701 442.516,344.144 461.683,334.205Z" style="fill:rgb(91,123,138);"/>
        <path d="M461.683,334.205C442.516,344.144 450.364,352.701 436.594,361.607C436.354,361.762 433.796,363.585 433.194,363.999C432.552,364.44 430.338,365.558 430.223,365.397C429.84,364.86 430.793,360.815 433.755,355.709C437.839,348.668 436.297,339.002 441.828,333.837C444,331.81 453.082,325.833 460.277,332.763C461.008,333.467 460.924,333.483 461.683,334.205Z" style="fill:rgb(142,173,149);"/>
        <path d="M473.781,318.088L475.462,319.559C478.918,322.902 478.914,322.813 482.257,326.259C479.305,328.811 479.233,328.658 473.627,332.685C468.754,336.185 468.785,332.59 464.276,328.714C464.414,328.633 466.036,328.45 467.674,326.739C472.563,321.633 473.283,321.917 473.781,318.088Z" style="fill:rgb(93,122,137);"/>
        <path d="M467.466,312.447C470.569,314.561 470.324,314.758 473.781,318.088C473.283,321.917 472.563,321.633 467.674,326.739C466.036,328.45 464.414,328.633 464.276,328.714C460.526,325.489 459.835,325.459 460.495,323.498C461.826,319.543 466.816,313.265 467.466,312.447Z" style="fill:rgb(119,153,166);"/>
        <path d="M435.361,262.506L436.053,263.068L435.454,263.473L435.361,262.506Z" style="fill:rgb(184,208,201);"/>
    </g>
</svg>
